<svg width="10" height="15" viewBox="0 0 10 15" fill="none" xmlns="http://www.w3.org/2000/svg">
<path id="cadeado" fill-rule="evenodd" clip-rule="evenodd" d="M10 7V13C10 14.1046 9.25381 15 8.33333 15H1.66667C0.746192 15 0 14.1046 0 13V7C0 5.89543 0.746192 5 1.66667 5V4C1.66667 1.79086 3.15905 0 5 0C6.84095 0 8.33333 1.79086 8.33333 4V5C9.25381 5 10 5.89543 10 7ZM5 2C4.07952 2 3.33333 2.89543 3.33333 4V5H6.66667V4C6.66667 2.89543 5.92047 2 5 2ZM5 7C4.07953 7 3.33333 7.89543 3.33333 9C3.33333 9.74028 3.6685 10.3866 4.16667 10.7324V12C4.16667 12.5523 4.53976 13 5 13C5.46024 13 5.83333 12.5523 5.83333 12V10.7324C6.3315 10.3866 6.66667 9.74028 6.66667 9C6.66667 7.89543 5.92047 7 5 7Z" fill="#16C70B"/>
</svg>
