<svg width="18" height="17" viewBox="0 0 18 17" fill="none" xmlns="http://www.w3.org/2000/svg">
<path d="M17.8891 3.23223C17.7804 3.08271 17.6069 2.99422 17.4225 2.99422H4.42787C4.4027 2.99422 4.37756 2.99576 4.35335 2.99903L3.81856 1.45208C3.76313 1.29209 3.64107 1.16456 3.48421 1.10259L0.788982 0.0401352C0.491938 -0.0765634 0.156747 0.0698454 0.0400882 0.367554C-0.0763688 0.665425 0.0694946 1.00198 0.366377 1.11904L2.81427 2.084L5.81053 10.7505C5.67828 10.7967 5.56622 10.8985 5.51518 11.041L4.64886 13.4557C4.59577 13.6038 4.61764 13.7683 4.708 13.897C4.79823 14.0257 4.94498 14.1023 5.10168 14.1023H5.54656C5.27087 14.4101 5.10168 14.8155 5.10168 15.2614C5.10168 16.2201 5.87905 17 6.83431 17C7.78958 17 8.56695 16.2201 8.56695 15.2614C8.56695 14.8155 8.39776 14.4101 8.12207 14.1023H11.8996C11.6238 14.4101 11.4546 14.8155 11.4546 15.2614C11.4546 16.2201 12.2318 17 13.1872 17C14.1427 17 14.9199 16.2201 14.9199 15.2614C14.9199 14.8155 14.7507 14.4101 14.475 14.1023H15.0162C15.282 14.1023 15.4974 13.886 15.4974 13.6193C15.4974 13.3526 15.2819 13.1364 15.0162 13.1364H5.78648L6.32301 11.6409C6.39229 11.6702 6.46714 11.6875 6.54549 11.6875H15.016C15.2672 11.6875 15.4894 11.5247 15.5659 11.2849L17.9723 3.75076C18.0288 3.57436 17.9978 3.38175 17.8891 3.23223ZM6.83431 16.0341C6.40962 16.0341 6.06427 15.6875 6.06427 15.2614C6.06427 14.8352 6.40962 14.4886 6.83431 14.4886C7.25901 14.4886 7.60436 14.8352 7.60436 15.2614C7.60436 15.6875 7.25901 16.0341 6.83431 16.0341ZM13.1872 16.0341C12.7625 16.0341 12.4171 15.6875 12.4171 15.2614C12.4171 14.8352 12.7625 14.4886 13.1872 14.4886C13.6119 14.4886 13.9572 14.8352 13.9572 15.2614C13.9572 15.6875 13.6119 16.0341 13.1872 16.0341ZM16.2146 5.4573H13.2674V4.15333H16.631L16.2146 5.4573ZM15.3659 8.11352H13.2674V6.61637H15.8442L15.3659 8.11352ZM9.44914 8.11352V6.61637H12.1123V8.11352H9.44914ZM12.1123 9.27271V10.5284H9.44914V9.27271H12.1123ZM5.60392 6.61637H8.29416V8.11352H6.12159L5.60392 6.61637ZM9.44914 5.4573V4.15333H12.1123V5.4573H9.44914ZM8.29412 4.15333V5.4573H5.20307L4.75227 4.15333H8.29412ZM6.52241 9.27271H8.29412V10.5284H6.95649L6.52241 9.27271ZM13.2674 10.5284V9.27275H14.9959L14.5949 10.5284H13.2674Z" fill="#474747"/>
</svg>
