<svg width="64" height="88" viewBox="0 0 64 88" fill="none" xmlns="http://www.w3.org/2000/svg">
<path d="M12.2871 78.8203C12.3783 78.8203 13.0098 77.5573 14.1816 75.0312C15.3535 72.4987 16.0762 71.0241 16.3496 70.6074C16.623 70.1908 16.9388 69.9108 17.2969 69.7676C17.6549 69.6178 18.2246 69.543 19.0059 69.543C19.7936 69.543 20.1875 69.7253 20.1875 70.0898L19.9531 70.3828L19.6504 70.7051C19.4551 70.959 19.3151 71.2552 19.2305 71.5938C19.1523 71.9258 19.1133 72.4759 19.1133 73.2441C19.1133 76.5124 19.1979 78.8952 19.3672 80.3926C19.4323 80.9785 19.6439 81.4408 20.002 81.7793C20.36 82.1113 20.5391 82.3327 20.5391 82.4434L20.2949 82.6191C19.9824 82.7624 19.3672 82.834 18.4492 82.834C17.5312 82.834 16.9551 82.7135 16.7207 82.4727L16.623 82.2578C16.623 82.069 16.6947 81.6816 16.8379 81.0957C16.9811 80.5033 17.0527 79.9141 17.0527 79.3281C17.0527 75.0573 16.916 72.9219 16.6426 72.9219C16.5059 72.9219 15.8841 74.2435 14.7773 76.8867C13.6706 79.5299 12.9902 81.0827 12.7363 81.5449C12.4889 82.0007 12.1602 82.2285 11.75 82.2285C11.4635 82.2285 10.679 80.666 9.39648 77.541C8.12044 74.4095 7.37174 72.8438 7.15039 72.8438C6.9681 72.8438 6.87695 74.4421 6.87695 77.6387C6.87695 79.0579 6.89974 79.9303 6.94531 80.2559C6.99089 80.5814 7.06576 80.972 7.16992 81.4277C7.2806 81.8835 7.33594 82.1862 7.33594 82.3359C7.33594 82.4857 7.23503 82.6094 7.0332 82.707C6.83138 82.8047 6.57096 82.8535 6.25195 82.8535H5.71484C4.64062 82.8535 4.10352 82.7168 4.10352 82.4434C4.10352 82.3066 4.28581 82.082 4.65039 81.7695C5.02148 81.4505 5.23633 81.1771 5.29492 80.9492C5.36003 80.7148 5.44466 79.543 5.54883 77.4336C5.65299 75.3177 5.70508 73.8822 5.70508 73.127C5.70508 72.3717 5.65951 71.8477 5.56836 71.5547C5.47721 71.2552 5.26562 70.9427 4.93359 70.6172C4.60807 70.2917 4.44531 70.0443 4.44531 69.875C4.44531 69.6667 5.04753 69.5625 6.25195 69.5625C6.71419 69.5625 7.11458 69.6276 7.45312 69.7578C7.79167 69.8815 8.1237 70.1842 8.44922 70.666C8.78125 71.1413 9.47135 72.6191 10.5195 75.0996C11.5677 77.5801 12.1569 78.8203 12.2871 78.8203ZM32.3066 81.9355C32.5931 82.1569 32.7363 82.3164 32.7363 82.4141C32.7363 82.5052 32.6875 82.5931 32.5898 82.6777C32.3099 82.9316 31.7109 83.0586 30.793 83.0586C30.4935 83.0586 30.2591 83.0098 30.0898 82.9121C29.9271 82.8079 29.7806 82.6224 29.6504 82.3555C29.5267 82.0885 29.4225 81.9551 29.3379 81.9551C29.2533 81.9616 29.0645 82.069 28.7715 82.2773C27.9512 82.8698 27.1667 83.166 26.418 83.166C26.4115 83.166 26.4017 83.166 26.3887 83.166H26.0957C25.0215 83.166 24.2435 82.7103 23.7617 81.7988C23.5143 81.3236 23.3874 80.1615 23.3809 78.3125C23.3809 76.457 23.3516 75.4382 23.293 75.2559C23.2344 75.0671 23.026 74.8913 22.668 74.7285C22.3164 74.5592 22.1406 74.429 22.1406 74.3379C22.1406 74.097 22.2546 73.9408 22.4824 73.8691C22.9902 73.7064 23.638 73.625 24.4258 73.625C24.8815 73.625 25.1712 73.8105 25.2949 74.1816C25.4577 74.6569 25.5391 75.793 25.5391 77.5898C25.5391 79.3802 25.6172 80.4674 25.7734 80.8516C26.0404 81.5091 26.5254 81.8379 27.2285 81.8379C27.5931 81.8379 27.9544 81.7435 28.3125 81.5547C28.6771 81.3659 28.9603 81.112 29.1621 80.793C29.3639 80.474 29.4648 79.5983 29.4648 78.166C29.4648 76.7272 29.416 75.8223 29.3184 75.4512C29.2272 75.0801 29.084 74.7904 28.8887 74.582C28.6934 74.3672 28.5957 74.1979 28.5957 74.0742C28.5957 73.7878 29.3607 73.6445 30.8906 73.6445C31.2096 73.6445 31.418 73.7161 31.5156 73.8594C31.6133 73.9961 31.6621 74.25 31.6621 74.6211L31.6328 75.1973L31.584 77.7949C31.584 79.4876 31.6328 80.5456 31.7305 80.9688C31.8281 81.3854 32.0202 81.7077 32.3066 81.9355ZM38.4004 74.084H38.1465C37.8014 74.084 37.4661 74.2826 37.1406 74.6797C36.8151 75.0768 36.6523 75.5391 36.6523 76.0664L36.6328 76.2227L36.623 76.4668V76.7207L36.6328 76.7988C36.6328 77.4759 36.7793 78.0228 37.0723 78.4395C37.3652 78.8561 37.8014 79.0645 38.3809 79.0645H38.4492C38.8984 79.0645 39.2826 78.8887 39.6016 78.5371C39.9206 78.1855 40.0801 77.7201 40.0801 77.1406V76.7598C40.0605 76.6035 40.0508 76.4766 40.0508 76.3789C40.0508 75.7604 39.8783 75.2233 39.5332 74.7676C39.1947 74.3118 38.8171 74.084 38.4004 74.084ZM37.5312 82.7656C37.0755 82.7656 36.6882 82.9251 36.3691 83.2441C36.0501 83.5632 35.8906 83.9635 35.8906 84.4453V84.5234C35.8906 85.0768 36.1087 85.513 36.5449 85.832C36.9811 86.151 37.5768 86.3105 38.332 86.3105H38.5859C39.4974 86.3105 40.2298 86.1022 40.7832 85.6855C41.3366 85.2689 41.6133 84.7806 41.6133 84.2207L41.6035 84.1426C41.6035 83.7715 41.4505 83.472 41.1445 83.2441C40.8385 83.0228 40.4772 82.9121 40.0605 82.9121C39.8001 82.8796 39.6113 82.8633 39.4941 82.8633L39.1621 82.834H38.9961L38.4102 82.7949L38.0098 82.7656H37.5312ZM43.5371 73.9766C43.5371 74.3477 43.3027 74.5853 42.834 74.6895C42.3652 74.7871 42.1309 74.9792 42.1309 75.2656L42.1602 75.4707L42.1992 75.7051L42.248 75.959C42.2806 76.1738 42.2969 76.4766 42.2969 76.8672C42.2969 77.2578 42.1862 77.6615 41.9648 78.0781C41.3464 79.2305 40.1549 79.862 38.3906 79.9727C37.8242 80.0117 37.4629 80.0605 37.3066 80.1191C36.9681 80.2493 36.7988 80.4674 36.7988 80.7734C36.7988 81.0794 37.0495 81.2943 37.5508 81.418C37.6224 81.4375 38.2702 81.4993 39.4941 81.6035C40.7181 81.7012 41.5352 81.8542 41.9453 82.0625C42.8112 82.4922 43.2441 83.1139 43.2441 83.9277C43.2441 84.9954 42.7656 85.8646 41.8086 86.5352C40.8581 87.2057 39.6113 87.541 38.0684 87.541C36.9811 87.541 36.0762 87.3327 35.3535 86.916C35.0215 86.7272 34.7513 86.4798 34.543 86.1738C34.3411 85.8743 34.2402 85.5618 34.2402 85.2363C34.2402 84.6569 34.4128 84.1751 34.7578 83.791C35.3112 83.179 35.5879 82.8535 35.5879 82.8145C35.5879 82.7754 35.4674 82.6029 35.2266 82.2969C34.9857 81.9909 34.8652 81.6719 34.8652 81.3398C34.8652 81.0078 35.0215 80.6497 35.334 80.2656C35.653 79.875 35.8125 79.6569 35.8125 79.6113C35.8125 79.5658 35.6172 79.2337 35.2266 78.6152C34.8359 77.9902 34.6406 77.3978 34.6406 76.8379C34.6406 76.278 34.7611 75.7799 35.002 75.3438C35.6855 74.1003 36.9583 73.4785 38.8203 73.4785H39.1035L40.4609 73.5664L40.959 73.5859C41.1283 73.5924 41.3008 73.5957 41.4766 73.5957L42.5117 73.5273C43.1953 73.5273 43.5371 73.6771 43.5371 73.9766ZM51.3691 78.6152C51.8835 79.1035 52.1406 79.722 52.1406 80.4707C52.1406 81.2129 51.8346 81.8509 51.2227 82.3848C50.6107 82.9121 49.7643 83.1758 48.6836 83.1758H48.4199C47.1895 83.1758 46.252 83.0228 45.6074 82.7168C45.2493 82.5475 45.0703 82.1699 45.0703 81.584V81.3398C45.0703 80.5911 45.2103 80.2168 45.4902 80.2168C45.7246 80.2168 46.0013 80.4382 46.3203 80.8809C46.6393 81.3171 46.9062 81.61 47.1211 81.7598C47.5378 82.0462 48.026 82.1895 48.5859 82.1895C49.1523 82.1895 49.569 82.0723 49.8359 81.8379C50.1029 81.597 50.2363 81.2812 50.2363 80.8906C50.2363 80.5 50.0085 80.1387 49.5527 79.8066C49.3118 79.6309 48.7487 79.3542 47.8633 78.9766C46.9844 78.599 46.3268 78.2051 45.8906 77.7949C45.4544 77.3783 45.2363 76.7923 45.2363 76.0371C45.2363 75.2819 45.5521 74.6699 46.1836 74.2012C46.8151 73.7259 47.5931 73.4883 48.5176 73.4883H48.7812C49.9922 73.4883 50.8418 73.6315 51.3301 73.918C51.584 74.0677 51.7109 74.4844 51.7109 75.168C51.7109 75.8516 51.5482 76.1934 51.2227 76.1934C51.0404 76.1934 50.7897 75.9915 50.4707 75.5879C50.1582 75.1777 49.8717 74.888 49.6113 74.7188C49.3509 74.543 48.9896 74.4551 48.5273 74.4551C48.0716 74.4551 47.7103 74.5592 47.4434 74.7676C47.1764 74.9759 47.043 75.2786 47.043 75.6758C47.043 76.0664 47.2871 76.418 47.7754 76.7305C47.8991 76.8151 48.4395 77.0658 49.3965 77.4824C50.3535 77.8991 51.0111 78.2767 51.3691 78.6152Z" fill="#F38181"/>
<path d="M53.5243 23.875H3.41333C2.72296 23.875 1.625 24.4346 1.625 25.125V35.6495C1.625 36.5869 1.673 37.5348 1.76775 38.4668C1.83763 39.1536 3.15363 39.5369 3.84 39.4667C4.52688 39.3969 4.32463 38.9009 4.25488 38.2141C4.16875 37.3658 4.125 36.5029 4.125 35.6495V26.375H46.7856V35.6495C46.7856 43.6576 42.966 51.2346 36.5475 56H14.3629C11.5773 53.9338 9.28363 51.3645 7.54125 48.3578C7.19513 47.7604 6.78392 47.2273 6.18667 47.5733C5.58929 47.9195 5.032 49.0139 5.37813 49.6111C7.25713 52.8538 9.72062 55.6325 12.7052 57.8807V62.75C12.7052 63.4404 13.6725 63.7867 14.3629 63.7867H36.5475C37.2378 63.7867 38.2052 63.4404 38.2052 62.75V57.8791C39.8169 56.6632 41.2783 55.2866 42.5703 53.7779H43.3666C53.8479 53.7779 62.3749 45.2508 62.3749 34.7696V32.7258C62.375 27.8455 58.4045 23.875 53.5243 23.875ZM35.7054 61.5H15.2054V58.5H35.7054V61.5ZM49.2856 31.875H53.12C53.5891 31.875 54.375 32.2566 54.375 32.7258V34.7696C54.375 39.2554 51.677 43.196 47.6961 44.8946C48.7328 41.9574 49.2856 38.835 49.2856 35.6495V31.875ZM59.875 34.7696C59.875 43.4901 53.078 50.6519 44.5037 51.238C45.218 50.1797 45.8569 49.0736 46.4195 47.9295C52.515 46.5213 56.875 41.0858 56.875 34.7696V32.7258C56.875 30.8783 55.3719 29.375 53.5243 29.375H49.2856V26.375H53.5243C57.0261 26.375 59.875 29.224 59.875 32.7258V34.7696Z" fill="#F38181"/>
<path d="M5.05153 42.7358C4.81903 42.5021 4.59545 42.4533 4.2667 42.4533C3.9367 42.4533 3.51753 42.5021 3.28628 42.7358C3.05253 42.9671 2.92511 43.5162 2.92511 43.8462C2.92511 44.175 3.05253 44.4975 3.28628 44.73C3.51878 44.9625 3.84003 45.0962 4.17003 45.0962C4.49878 45.0962 4.95801 44.9625 5.19051 44.73C5.42301 44.4975 5.42003 44.175 5.42003 43.8462C5.42003 43.5162 5.28403 42.9683 5.05153 42.7358Z" fill="#F38181"/>
<path d="M30.6776 13.5236C30.6776 14.7351 30.2059 15.8741 29.3491 16.7309C28.861 17.219 27.8851 17.8585 28.3734 18.3466C28.6175 18.5908 29.9131 18.8647 30.233 18.8647C30.5529 18.8647 30.8729 18.7426 31.1169 18.4986C32.4458 17.1697 33.1776 15.4029 33.1776 13.5235C33.1776 11.6441 32.4459 9.87736 31.1169 8.54836C30.2601 7.69161 29.7884 6.55273 29.7884 5.34111C29.7884 4.12948 30.2601 2.99048 31.1169 2.13386C31.605 1.64573 32.7015 1.12823 32.2134 0.639978C31.7252 0.151853 29.8373 -0.122141 29.349 0.365984C28.0201 1.69486 27.2883 3.46173 27.2883 5.34111C27.2883 7.22048 28.0201 8.98723 29.349 10.3162C30.2058 11.173 30.6776 12.312 30.6776 13.5236Z" fill="#F38181"/>
<path d="M21.1225 16.0236C21.1225 17.2351 20.6507 18.3741 19.794 19.2309C19.3059 19.719 18.285 20.2052 18.7733 20.6933C19.0174 20.9374 20.358 21.3647 20.6779 21.3647C20.9977 21.3647 21.3177 21.2426 21.5617 20.9986C22.8906 19.6697 23.6225 17.9029 23.6225 16.0235C23.6225 14.1441 22.8906 12.3774 21.5617 11.0484C19.7932 9.27998 19.7932 6.40235 21.5617 4.63385C22.0499 4.14573 23.1014 3.68808 22.6133 3.19995C22.1252 2.71183 20.2821 2.37798 19.794 2.8661C17.0509 5.60935 17.0509 10.073 19.794 12.8162C20.6506 13.673 21.1225 14.812 21.1225 16.0236Z" fill="#F38181"/>
</svg>
