<svg width="300" height="169" viewBox="0 0 300 169" fill="none" xmlns="http://www.w3.org/2000/svg">
<path d="M298.669 88.9313L270.544 42.0563C268.856 39.225 265.8 37.5 262.5 37.5H206.25V9.375C206.25 4.2 202.05 0 196.875 0H65.625C60.45 0 56.25 4.2 56.25 9.375V18.75H9.375C4.2 18.75 0 22.95 0 28.125C0 33.3 4.2 37.5 9.375 37.5H56.25V56.25H28.125C22.95 56.25 18.75 60.45 18.75 65.625C18.75 70.8 22.95 75 28.125 75H56.25V93.75H46.875C41.7 93.75 37.5 97.95 37.5 103.125C37.5 108.3 41.7 112.5 46.875 112.5H56.25V140.625C56.25 145.8 60.45 150 65.625 150H95.475C99.3563 160.894 109.669 168.75 121.875 168.75C134.081 168.75 144.394 160.894 148.275 150H196.875H206.25H226.725C230.606 160.894 240.919 168.75 253.125 168.75C265.331 168.75 275.644 160.894 279.525 150H290.625C295.8 150 300 145.8 300 140.625V93.75C300 92.0438 299.55 90.375 298.669 88.9313ZM121.875 150C116.7 150 112.5 145.781 112.5 140.625C112.5 135.469 116.7 131.25 121.875 131.25C127.05 131.25 131.25 135.469 131.25 140.625C131.25 145.781 127.05 150 121.875 150ZM253.125 150C247.969 150 243.75 145.781 243.75 140.625C243.75 135.469 247.969 131.25 253.125 131.25C258.281 131.25 262.5 135.469 262.5 140.625C262.5 145.781 258.281 150 253.125 150ZM225 93.75V56.25H257.194L279.694 93.75H225Z" fill="#323232"/>
</svg>
